<svg xmlns="http://www.w3.org/2000/svg" viewBox="0 0 200 240">
  <path d="M100,6 C42,6 12,48 12,96 C12,132 32,158 58,168 L58,196 Q58,220 82,220 L118,220 Q142,220 142,196 L142,168 C168,158 188,132 188,96 C188,48 158,6 100,6 Z"
        fill="#F4EFE6" stroke="#2B2B33" stroke-width="9"/>
  <ellipse cx="64" cy="104" rx="21" ry="26" fill="#2B2B33"/>
  <ellipse cx="136" cy="104" rx="21" ry="26" fill="#2B2B33"/>
  <path d="M100,124 L88,148 L112,148 Z" fill="#2B2B33"/>
  <rect x="60" y="170" width="80" height="34" rx="12" fill="#2B2B33"/>
  <rect x="68" y="175" width="14" height="24" rx="4" fill="#F4EFE6"/>
  <rect x="86" y="175" width="14" height="24" rx="4" fill="#F4EFE6"/>
  <rect x="104" y="175" width="14" height="24" rx="4" fill="#F4EFE6"/>
  <rect x="122" y="175" width="14" height="24" rx="4" fill="#F4EFE6"/>
</svg>
